<svg
        xmlns="http://www.w3.org/2000/svg"
        viewBox="0 0 800 560"
    >
        
    <rect
        width="800"
        height="560"
        rx="38"
        fill="#FFF8EF"
    />

    <circle
        cx="690"
        cy="78"
        r="34"
        fill="#FFD166"
    />

    <path
        d="M0 470 Q200 430 400 470 T800 470 V560 H0 Z"
        fill="#F3E3D0"
    />
    

        
    <ellipse
        cx="400"
        cy="490"
        rx="72"
        ry="14"
        fill="#E8D5BF"
    />
    

    <path
        d="
            M 355 262
            Q 400 198 445 262
            L 438 295
            Q 400 275 362 295
            Z
        "
        fill="#5A3825"
    />
    

    <circle
        cx="400"
        cy="265"
        r="43"
        fill="#F3C7A5"
    />
    

    <path
        d="
            M 357 260
            Q 380 210 442 257
            Q 415 238 388 245
            Q 370 251 357 260
            Z
        "
        fill="#5A3825"
    />
    

        <path
            d="M 380 267 Q 387 260 394 267"
            fill="none"
            stroke="#3B2416"
            stroke-width="5"
            stroke-linecap="round"
        />

        <path
            d="M 406 267 Q 413 260 420 267"
            fill="none"
            stroke="#3B2416"
            stroke-width="5"
            stroke-linecap="round"
        />
        

        <path
            d="
                M 386 285
                Q 400 300 414 285
            "
            fill="none"
            stroke="#3B2416"
            stroke-width="5"
            stroke-linecap="round"
        />
        

    <path
        d="
            M 355 327
            Q 400 297 445 327
            L 454 447
            L 346 447
            Z
        "
        fill="#F59E0B"
    />
    

        <path
            d="
                M 442 352
                Q 470 372 455 332
                Q 448 319 430 309
            "
            fill="none"
            stroke="#F3C7A5"
            stroke-width="18"
            stroke-linecap="round"
        />

        <circle
            cx="428"
            cy="307"
            r="10"
            fill="#F3C7A5"
        />

        <!-- Tay trái giữ thấp -->
        <path
            d="
                M 358 352
                Q 335 392 345 432
            "
            fill="none"
            stroke="#F3C7A5"
            stroke-width="18"
            stroke-linecap="round"
        />

        <circle
            cx="345"
            cy="435"
            r="10"
            fill="#F3C7A5"
        />

        <!-- Cốc gần miệng -->
        <rect
            x="418"
            y="279"
            width="22"
            height="34"
            rx="5"
            fill="#BFE8FF"
            stroke="#3B2416"
            stroke-width="3"
            transform="rotate(-18 429 296)"
        />
        

    <path
        d="
            M 380 442
            L 372 505
        "
        stroke="#4B5563"
        stroke-width="17"
        stroke-linecap="round"
    />

    <path
        d="
            M 420 442
            L 428 505
        "
        stroke="#4B5563"
        stroke-width="17"
        stroke-linecap="round"
    />

    <ellipse
        cx="362"
        cy="510"
        rx="22"
        ry="10"
        fill="#3B2416"
    />

    <ellipse
        cx="438"
        cy="510"
        rx="22"
        ry="10"
        fill="#3B2416"
    />
    

        
    <rect
        x="250.0"
        y="55"
        width="300"
        height="78"
        rx="28"
        fill="white"
        stroke="#E4D3C0"
        stroke-width="3"
    />

    
        <path
            d="
                M 380 94.0
                L 400 122.0
                L 420 94.0
            "
            fill="white"
            stroke="#E4D3C0"
            stroke-width="3"
        />
        

    <text
        x="400"
        y="104"
        text-anchor="middle"
        font-family="Arial, sans-serif"
        font-size="28"
        font-weight="700"
        fill="#3B2416"
    >
        Je bois de l&#x27;eau.
    </text>
    
    </svg>